<svg width="500" height="500" viewBox="0 0 500 500" fill="none" xmlns="http://www.w3.org/2000/svg">
<g clip-path="url(#clip0_9_2)">
<rect width="500" height="500" fill="#00CDFF"/>
<path d="M165.764 -489C165.764 -489 83 -489 83 -409.489V405.125C83 489.137 165.764 489.137 165.764 489.137H492.305C492.305 489.137 575.069 489.137 575.069 408.125V-404.988C575.069 -489 492.305 -489 492.305 -489H165.764Z" fill="#002992" stroke="#002992"/>
<path d="M122 315V-411H536V315H122Z" fill="url(#paint0_linear_9_2)"/>
<path d="M292 409.5C292 339.499 398.999 339.499 399 409.5C399.001 479.501 292 479.501 292 409.5Z" fill="white" stroke="white"/>
<path d="M52.4996 240.5C52.5001 501.273 439.5 510.5 439.5 240.5C439.5 -29.4997 52.4991 -20.2725 52.4996 240.5Z" stroke="white" stroke-width="6" stroke-linecap="round" stroke-dasharray="8 16"/>
<path d="M285.727 276.688L227.695 263.966L211.374 205.809L273.032 144.018C118.887 142.201 158.783 276.688 158.783 276.688L-4.42969 447.522C-4.42969 447.522 -133.186 411.174 -135 563.835L-73.3418 505.678L-17.124 518.4L-0.802734 578.374L-60.6474 641.982C98.9385 643.8 53.6016 505.678 53.6016 505.678L216.815 334.844C216.815 334.844 354.639 371.192 345.571 213.079L285.727 276.688Z" fill="#FFFEFA"/>
</g>
<defs>
<linearGradient id="paint0_linear_9_2" x1="318.5" y1="-39.9333" x2="335.66" y2="-30.3607" gradientUnits="userSpaceOnUse">
<stop stop-color="#59AFFA"/>
<stop offset="1" stop-color="#3989E0"/>
</linearGradient>
<clipPath id="clip0_9_2">
<rect width="500" height="500" fill="white"/>
</clipPath>
</defs>
</svg>
